# xmcd CD database file
#
# Track frame offsets:
#	150
#	11595
#	28022
#	46499
#	59144
#	84710
#	102243
#	115187
#	127603
#	142255
#	163114
#	181990
#	191018
#	209383
#	230991
#	243759
#	254319
#	272214
#	288470
#
# Disc length: 4063 seconds
#
# Revision: 1
# Processed by: cddbd v1.5.2PL0 Copyright (c) Steve Scherf et al.
# Submitted via: CDex 1.40PlusFr
#
DISCID=1f0fdd13
DTITLE=Cynthia Gayneau - The Bucks - Buckaroo rendez-vous
DYEAR=2007
DGENRE=Country
TTITLE0=For You, Everything Wil be Allright
TTITLE1=Vacuum And Broom
TTITLE2=Whalkin Down The Road
TTITLE3=What Girls Said
TTITLE4=I'll Give You Lovin'
TTITLE5=Sunshine Over You
TTITLE6=Headed Home To Texas
TTITLE7=Uncle Henri
TTITLE8=Summer's Day
TTITLE9=Should He Try
TTITLE10=Under The Gypsy Moon
TTITLE11=Civil War Widow
TTITLE12=Everyone Knows Love
TTITLE13=Ma Tout' Bel'
TTITLE14=If A Man Answers
TTITLE15=Dont Feel Linke Talkin
TTITLE16=I Couldn't Save Our Love
TTITLE17=Les Routes De Menphis
TTITLE18=Waltz For A Funeral
EXTD=YEAR: 2007 ID3G: 2
EXTT0=
EXTT1=
EXTT2=
EXTT3=
EXTT4=
EXTT5=
EXTT6=
EXTT7=
EXTT8=
EXTT9=
EXTT10=
EXTT11=
EXTT12=
EXTT13=
EXTT14=
EXTT15=
EXTT16=
EXTT17=
EXTT18=
PLAYORDER=
